<?xml version="1.0" encoding="UTF-8" standalone="no"?>
<!-- Created with Inkscape (http://www.inkscape.org/) -->

<svg
   width="12.721857mm"
   height="12.722092mm"
   viewBox="0 0 12.721857 12.722092"
   version="1.1"
   id="svg1"
   xmlns="http://www.w3.org/2000/svg"
   xmlns:svg="http://www.w3.org/2000/svg">
  <defs
     id="defs1" />
  <g
     id="layer1"
     transform="translate(-89.11529,-141.78564)">
    <path
       id="path58"
       style="font-variation-settings:'wght' 700;fill:#000000;fill-opacity:1;stroke:none;stroke-width:0.130373;stroke-linecap:round;stroke-linejoin:round;paint-order:stroke fill markers"
       d="m 95.47609,141.78564 a 6.3609704,6.3609704 0 0 0 -6.3608,6.36105 6.3609704,6.3609704 0 0 0 6.3608,6.36105 6.3609704,6.3609704 0 0 0 6.36106,-6.36105 6.3609704,6.3609704 0 0 0 -6.36106,-6.36105 z m 0,1.38292 a 4.9781507,4.9781507 0 0 1 4.97838,4.97813 4.9781507,4.9781507 0 0 1 -4.97838,4.97813 4.9781507,4.9781507 0 0 1 -4.978128,-4.97813 4.9781507,4.9781507 0 0 1 4.978128,-4.97813 z" />
  </g>
</svg>
