<?xml version="1.0" encoding="UTF-8" standalone="no"?>
<!-- Created with Inkscape (http://www.inkscape.org/) -->

<svg
   width="37.835415mm"
   height="37.712429mm"
   viewBox="0 0 37.835415 37.712429"
   version="1.1"
   id="svg1"
   xmlns="http://www.w3.org/2000/svg"
   xmlns:svg="http://www.w3.org/2000/svg">
  <defs
     id="defs1" />
  <g
     id="layer1"
     transform="translate(-28.552958,-144.60275)">
    <path
       id="path59"
       style="font-variation-settings:'wght' 700;fill:#000000;fill-opacity:1;stroke:none;stroke-width:0.264583;stroke-linecap:round;stroke-linejoin:round;paint-order:stroke fill markers"
       d="m 48.630806,144.60275 -3e-6,37.71243 a 18.917707,18.917707 0 0 0 1.661918,-0.13798 l -6e-6,-37.40186 a 18.917707,18.917707 0 0 0 -1.661909,-0.17259 z m -2.323374,0.0434 a 18.917707,18.917707 0 0 0 -1.667601,0.13952 l 4e-6,37.38997 a 18.917707,18.917707 0 0 0 1.667597,0.13953 z m 6.308661,0.63562 -6e-6,36.39053 a 18.917707,18.917707 0 0 0 1.751836,-0.62476 l -4e-6,-35.17666 a 18.917707,18.917707 0 0 0 -1.751826,-0.58911 z m -10.299116,0.009 a 18.917707,18.917707 0 0 0 -1.60765,0.57206 v 35.23506 a 18.917707,18.917707 0 0 0 1.607653,0.57206 z m -3.930506,1.65055 a 18.917707,18.917707 0 0 0 -1.751834,1.07952 l -2e-6,30.91903 a 18.917707,18.917707 0 0 0 1.751832,1.07953 z m 18.304307,0.0263 2e-6,32.97783 a 18.917707,18.917707 0 0 0 1.607649,-0.99942 l 3e-6,-30.97124 a 18.917707,18.917707 0 0 0 -1.607654,-1.00717 z m 3.930508,2.92024 v 27.12702 a 18.917707,18.917707 0 0 0 1.667602,-1.84226 l -2e-6,-23.44405 a 18.917707,18.917707 0 0 0 -1.6676,-1.84071 z m -26.310022,0.0667 a 18.917707,18.917707 0 0 0 -1.692921,1.87947 l 5e-6,23.29264 a 18.917707,18.917707 0 0 0 1.692919,1.87947 z m 30.300996,5.52834 -5e-6,15.97836 a 18.917707,18.917707 0 0 0 1.77612,-7.98091 18.917707,18.917707 0 0 0 -1.776115,-7.99745 z m -34.31677,0.078 a 18.917707,18.917707 0 0 0 -1.742532,7.9194 18.917707,18.917707 0 0 0 1.742534,7.91942 z" />
  </g>
</svg>
