<?xml version="1.0" encoding="UTF-8" standalone="no"?>
<!-- Created with Inkscape (http://www.inkscape.org/) -->

<svg
   width="83.000099mm"
   height="41.499798mm"
   viewBox="0 0 83.000099 41.499798"
   version="1.1"
   id="svg1"
   xmlns="http://www.w3.org/2000/svg"
   xmlns:svg="http://www.w3.org/2000/svg">
  <defs
     id="defs1" />
  <g
     id="layer1"
     transform="translate(-27.682793,-61.246241)">
    <path
       id="path2"
       style="font-variation-settings:'wght' 700;fill:#000000;fill-opacity:1;stroke:none;stroke-width:0.541566;stroke-linecap:round;stroke-linejoin:round;paint-order:stroke fill markers"
       d="M 69.182584,61.246243 A 41.50019,41.499932 0 0 0 27.682793,102.74604 h 1.825728 A 39.673931,39.673685 0 0 1 69.182584,63.071973 39.673931,39.673685 0 0 1 108.85664,102.74604 h 1.82625 A 41.50019,41.499932 0 0 0 69.182584,61.246243 Z m 0,6.57427 A 34.925658,34.925441 0 0 0 34.257069,102.74604 h 2.008663 A 32.916774,32.91657 0 0 1 69.182584,69.829693 32.916774,32.91657 0 0 1 102.09995,102.74604 h 2.00866 A 34.925658,34.925441 0 0 0 69.182584,67.820513 Z m 0,7.85327 A 27.072748,27.07258 0 0 0 42.109819,102.74604 h 1.778703 a 25.294473,25.294316 0 0 1 25.294062,-25.294067 25.294473,25.294316 0 0 1 25.29457,25.294067 h 1.778703 A 27.072748,27.07258 0 0 0 69.182584,75.673783 Z m 0,7.12205 A 19.950334,19.95021 0 0 0 49.232382,102.74604 h 1.643311 A 18.306703,18.306589 0 0 1 69.182584,84.439653 18.306703,18.306589 0 0 1 87.489463,102.74604 h 1.64383 A 19.950334,19.95021 0 0 0 69.182584,82.795833 Z m 0,7.487394 A 12.462672,12.462594 0 0 0 56.71978,102.74604 h 1.46141 A 11.001666,11.001598 0 0 1 69.182584,91.744637 11.001666,11.001598 0 0 1 80.184495,102.74604 h 1.46089 A 12.462672,12.462594 0 0 0 69.182584,90.283227 Z m 0,7.122573 a 5.3402609,5.3402277 0 0 0 -5.34024,5.34024 h 1.46141 a 3.8792555,3.8792314 0 0 1 3.87883,-3.87935 3.8792555,3.8792314 0 0 1 3.87935,3.87935 h 1.46141 a 5.3402609,5.3402277 0 0 0 -5.34076,-5.34024 z m 0,4.38319 a 0.95723914,0.95723319 0 0 0 -0.95705,0.95705 h 0.95705 0.95756 a 0.95723914,0.95723319 0 0 0 -0.95756,-0.95705 z" />
  </g>
</svg>
