<?xml version="1.0" encoding="UTF-8" standalone="no"?>
<!-- Created with Inkscape (http://www.inkscape.org/) -->

<svg
   width="50.275452mm"
   height="59.695541mm"
   viewBox="0 0 50.275452 59.695541"
   version="1.1"
   id="svg1"
   xmlns="http://www.w3.org/2000/svg"
   xmlns:svg="http://www.w3.org/2000/svg">
  <defs
     id="defs1" />
  <g
     id="layer1"
     transform="translate(-122.72914,-118.86609)">
    <path
       id="rect30"
       style="font-variation-settings:'wght' 700;stroke-width:0.212217;stroke-linecap:round;stroke-linejoin:round;paint-order:stroke fill markers"
       d="m 147.1984,118.86609 -9.80612,9.80612 -1.15962,1.1591 9.02478,9.02477 -9.02478,9.02426 -0.0351,0.0351 -0.24546,0.24546 -1.05213,1.05265 9.35963,9.35963 -8.47131,8.47184 -1.15962,1.1591 10.3575,10.35751 1.33326,-1.33274 -9.02478,-9.02477 9.63249,-9.63249 -1.33273,-1.33325 -0.002,0.002 -8.02691,-8.0269 9.02426,-9.02478 0.003,-0.003 0.0217,-0.0217 1.30845,-1.30793 -9.02477,-9.02477 9.63249,-9.63249 z m 12.7,0 -9.80612,9.80612 -1.15962,1.1591 9.02478,9.02477 -9.02478,9.02426 -0.0351,0.0351 -0.24546,0.24546 -1.05213,1.05265 9.35963,9.35963 -8.47131,8.47184 -1.15962,1.1591 10.3575,10.35751 1.33326,-1.33274 -9.02478,-9.02477 9.63249,-9.63249 -1.33273,-1.33325 -0.002,0.002 -8.02691,-8.0269 9.02426,-9.02478 0.003,-0.003 0.0217,-0.0217 1.30845,-1.30793 -9.02477,-9.02477 9.63249,-9.63249 z m 11.77396,0 -9.80612,9.80612 -1.15962,1.1591 9.02477,9.02477 -9.02477,9.02426 -0.0351,0.0351 -0.24546,0.24546 -1.05213,1.05265 9.35963,9.35963 -8.47132,8.47184 -1.15962,1.1591 10.35751,10.35751 1.33325,-1.33274 -9.02477,-9.02477 9.63249,-9.63249 -1.33274,-1.33325 -0.002,0.002 -8.0269,-8.0269 9.02426,-9.02478 0.003,-0.003 0.0217,-0.0217 1.30845,-1.30793 -9.02477,-9.02477 9.63249,-9.63249 z m -38.56095,19.96519 -9.04958,9.04906 -0.0351,0.0351 -0.24546,0.24546 -1.05213,1.05265 10.47429,10.47429 1.33326,-1.33273 -9.14157,-9.14156 9.04906,-9.04958 z" />
  </g>
</svg>
